# xmcd
#
# Track frame offsets:
#	150
#	16223
#	27286
#	42608
#	60430
#	74266
#	98570
#	116826
#	139063
#	146712
#	163924
#
# Disc length: 2346 seconds
#
# Revision: 1
# Processed by: cddbd v1.5.1PL2 Copyright (c) Steve Scherf et al.
# Submitted via: audiograbber 1.83.01
#
DISCID=9b09280b
DTITLE=Miriam Aida - Meu Brasil
DYEAR=2005
DGENRE=Blues
TTITLE0=Folhas secas
TTITLE1=Estrada do sol
TTITLE2=Tristeza e solidao
TTITLE3=Quem te viu, quem te ve
TTITLE4=Poe causa de voce meninha
TTITLE5=Reza
TTITLE6=Bonita
TTITLE7=Lapinha
TTITLE8=Umas flores
TTITLE9=Deixa
TTITLE10=Ensam kvar
EXTD=
EXTT0=
EXTT1=
EXTT2=
EXTT3=
EXTT4=
EXTT5=
EXTT6=
EXTT7=
EXTT8=
EXTT9=
EXTT10=
PLAYORDER=
